<svg width="633" height="396" viewBox="0 0 633 396" fill="none" xmlns="http://www.w3.org/2000/svg">
<g filter="url(#filter0_d)">
<path d="M497.208 299.578C508.086 296.83 519.972 296.514 531.158 294.41C553.327 290.247 571.775 279.15 584.821 265.799C597.867 252.449 606.008 236.897 612.742 221.224C621.859 200.012 628.693 177.812 626.008 155.418C623.317 133.023 610.025 110.235 585.114 96.0547C578.196 92.1191 570.527 88.902 563.755 84.8413C548.578 75.737 541.441 63.8051 531.122 52.2209C522.256 42.2684 507.224 33.8502 493.765 26.9989C464.627 12.1836 430.196 2.79202 395.065 0.492788C379.114 -0.550211 362.75 -0.146918 347.933 3.75622C332.202 7.9004 319.103 15.7206 306.548 23.5732C288.241 35.023 269.808 47.094 246.866 53.1387C223.559 59.2808 197.702 58.6458 173.01 61.3483C118.699 67.2957 69.3153 90.492 40.5428 123.576C15.2918 152.613 6.112 189.563 20.0097 223.194C33.9127 256.825 72.0948 286.066 119.253 295.36C167.963 304.96 223.073 294.155 267.065 312.414C284.599 319.692 301.292 330.804 315.399 341.215C329.95 351.956 347.954 358.255 368.424 361.38C373.445 362.145 378.56 362.687 383.649 362.534C438.122 360.884 450.886 311.283 497.208 299.578Z" fill="white"/>
<path d="M384.485 99.8695C385.363 101.098 386.596 102.011 388.022 102.697C389.318 103.36 390.77 103.828 392.218 104.199C396.042 105.154 400.478 105.409 403.66 103.304C405.483 102.095 406.779 100.166 408.932 99.4847C412.338 98.4139 415.786 100.945 419.386 101.357C421.847 101.65 424.371 100.871 426.413 99.5821C428.435 98.2749 429.992 96.5041 431.335 94.6128C432.808 92.5268 434.125 90.1673 436.518 88.9204C438.65 87.8078 441.241 87.7708 443.723 87.8078C446.8 87.8866 450.249 88.1972 452.203 90.3203C453.039 91.215 453.76 92.7586 454.794 93.6532C455.541 94.3161 456.44 94.6267 457.673 94.2002C461.121 92.9904 459.538 89.6806 458.201 87.729C455.06 83.1306 449.261 79.9321 443.153 79.8348C440.651 79.7745 438.169 80.2056 435.661 80.2612C433.023 80.3215 430.389 79.9877 427.887 79.2692C425.118 78.4487 422.547 77.2018 419.757 76.4415C414.334 74.9628 407.829 75.7416 404.01 79.4639C402.866 80.5764 401.988 81.9022 400.692 82.8757C398.54 84.4749 395.619 84.8457 392.98 85.6245C389.642 86.598 386.523 88.3919 384.72 91.0434C382.902 93.695 382.594 97.2597 384.485 99.8695Z" fill="#1F1D1C"/>
<path d="M388.023 102.697C389.319 103.36 390.771 103.829 392.219 104.199C396.043 105.154 400.479 105.409 403.661 103.305C405.484 102.095 406.78 100.166 408.933 99.485C412.339 98.4142 415.787 100.945 419.387 101.358C421.848 101.65 424.372 100.871 426.414 99.5824C428.436 98.2752 429.993 96.5044 431.336 94.6131C432.809 92.527 434.126 90.1675 436.519 88.9206C438.651 87.808 441.242 87.7709 443.724 87.808C446.801 87.8868 450.25 88.1974 452.204 90.3205C453.04 91.2152 453.761 92.7588 454.795 93.6535C456.686 86.1114 445.809 83.5989 439.419 83.8724C435.134 84.0671 430.85 85.6061 427.977 88.4338C426.242 90.1675 424.967 92.388 422.637 93.4217C420.484 94.3766 417.935 94.1217 415.563 93.8482C411.717 93.3985 407.412 93.1065 404.382 95.2528C401.942 96.9865 400.824 100.046 397.992 101.237C394.941 102.503 391.007 101.103 388.107 102.642L388.023 102.697Z" fill="#141414"/>
<path d="M445.176 243.016C447.945 245.607 451.106 248.101 454.533 250.442C457.851 252.723 461.388 254.846 464.988 256.774C479.11 264.335 502.877 277.996 510.411 282.849C511.775 283.725 512.235 285.343 511.467 286.65C508.457 291.777 505.406 302.458 502.658 314.422C497.208 338.374 493.081 367.49 493.081 367.49C496.926 372.399 506.655 370.257 506.655 370.257C506.655 370.257 519.152 344.006 529.717 319.822C537.689 301.484 544.544 284.314 543.949 280.708C542.522 271.882 510.207 244.263 487.104 225.049C474.079 214.192 463.974 206.029 463.974 205.403C463.974 205.403 460.615 204.995 456.064 205.774C450.484 206.747 443.107 209.533 437.898 217.117C432.109 225.596 436.523 234.811 445.176 243.016Z" fill="#B0763C"/>
<path d="M295.613 294.758C295.462 296.668 296.031 298.614 296.71 300.177C297.546 302.147 298.576 303.528 298.576 303.528C298.576 303.528 330.227 305.475 360.123 306.041C383.932 306.467 406.622 306.041 411.236 303.041C417.297 299.106 429.512 275.483 440.165 253.441C441.9 249.895 443.572 246.386 445.176 243.016C452.95 226.666 459.037 213.371 459.763 213.2C459.763 213.2 458.974 209.733 456.074 205.774C453.065 201.62 447.751 196.966 438.655 195.251C420.907 191.918 404.606 213.942 403.707 231.751C403.556 235.121 403.091 239.038 402.479 243.192C400.416 257.126 396.44 273.634 394.794 280.221C394.418 281.723 392.793 282.733 391.084 282.501C384.36 281.607 371.403 282.307 357.212 283.632C329.49 286.242 297.024 291.235 297.024 291.235C296.12 292.324 295.723 293.534 295.613 294.758Z" fill="#B0763C"/>
<path d="M468.708 184.524C468.708 184.524 473.682 193.471 479.878 202.269C485.845 210.743 492.925 219.073 497.81 219.249C511.221 220.106 524.801 219.351 538.176 218.368C547.45 217.691 557.074 216.94 566.055 214.785C571.598 213.454 573.448 205.426 569.853 201.444C568.139 199.552 564.9 199.265 562.298 200.03C559.696 200.795 557.549 202.394 555.339 203.845C548.662 208.212 541.232 206.464 533.526 205.917C523.468 205.226 513.405 204.531 503.348 203.84C503.348 203.84 496.368 198.384 492.637 180.774C488.891 163.14 483.745 150.875 478.985 148.603C476.503 147.412 473.792 157.355 471.785 167.057C469.952 175.879 468.708 184.524 468.708 184.524ZM551.723 207.73C551.791 207.72 551.864 207.688 551.932 207.679C551.859 207.73 551.812 207.739 551.739 207.771L551.723 207.73Z" fill="#B0763C"/>
<path d="M468.708 184.524C468.708 184.524 473.682 193.47 479.878 202.269C478.828 185.381 481.968 173.505 481.968 173.505C483.118 166.918 475.5 166.76 471.78 167.057C469.952 175.878 468.708 184.524 468.708 184.524Z" fill="#603813"/>
<path d="M420.222 202.014C435.886 207.822 448.864 209.751 458.55 210.061C463.603 208.852 464.418 207.744 464.418 207.744C464.945 207.53 466.591 203.942 466.748 203.456C467.673 200.591 469.846 197.981 470.855 195.135C472.897 189.466 473.159 183.342 477.772 178.549C478.827 177.497 480.034 176.542 480.912 175.355C483.263 172.254 483.023 168.221 482.318 164.499C482.276 164.285 482.229 164.049 482.187 163.836C481.372 159.761 481.967 156.099 481.659 152.103C481.44 149.238 478.451 148.186 475.463 147.328C474.893 147.171 472.741 146.55 472.302 146.411C470.478 145.905 468.613 145.456 466.988 145.103C464.574 144.538 462.793 144.186 462.793 144.186L462.396 130.367C462.814 123.896 446.492 120.915 446.492 120.915L445.525 141.984C445.504 142.141 444.6 142.062 442.955 141.923C441.92 141.826 440.604 141.729 439.02 141.613C438.932 141.594 438.843 141.576 438.733 141.594C438.383 141.557 438.054 141.534 437.678 141.515C437.019 141.478 436.34 141.437 435.614 141.4C434.167 141.284 432.646 141.223 431.199 141.339C428.649 141.553 426.434 142.331 425.577 144.635C423.864 149.252 424.872 154.537 425.316 159.233C425.603 162.292 425.666 165.273 425.624 168.277C425.603 169.213 425.582 170.126 425.556 171.062C425.405 174.395 425.159 177.71 424.877 181.043C424.835 181.53 424.809 181.998 424.767 182.484C424.658 183.792 421.606 202.014 420.222 202.014Z" fill="#B0763C"/>
<path d="M432.469 143.727C430.624 142.971 429.109 141.738 427.155 142.248C413.832 145.734 362.964 160.178 362.964 177.348C362.964 189.276 365.389 201.184 367.745 212.903C369.386 221.043 371.131 229.47 374.401 237.198C376.392 241.903 385.373 242.825 389.579 239.409C391.267 238.037 391.732 235.853 391.162 233.883C390.316 230.958 387.865 228.872 385.666 226.698C380.128 221.219 381.402 214.493 381.282 207.637C381.126 198.686 380.948 189.734 380.781 180.783C380.781 180.783 387.223 175.188 438.153 162.023C443.195 160.721 439.653 146.67 432.469 143.727ZM380.979 223.875C381 223.945 381.021 224 381.037 224.056C380.995 224 380.958 223.954 380.917 223.903L380.979 223.875Z" fill="#B0763C"/>
<path d="M402.474 243.192C404.737 243.076 406.973 243.127 409.131 243.27C410.27 243.345 411.414 243.428 412.511 243.581C424.637 245.102 434.632 250.108 440.165 253.441C441.9 249.895 443.572 246.386 445.176 243.016C447.945 245.607 451.106 248.101 454.533 250.442C456.027 248.397 457.914 246.311 460.092 244.244C468.306 236.447 480.301 229.002 487.109 225.048C474.084 214.192 463.979 206.029 463.979 205.403C463.979 205.403 460.62 204.995 456.069 205.774C453.06 201.62 447.746 196.966 438.65 195.251C420.902 191.918 404.601 213.942 403.702 231.751C403.551 235.126 403.091 239.043 402.474 243.192Z" fill="#EDEDED"/>
<path d="M490.119 375.054C490.098 376.672 491.305 378.114 492.799 379.032C494.293 379.926 496.07 380.376 497.809 380.826C504.727 382.638 510.882 385.563 518.149 386.634C522.496 387.26 531.441 388.289 532.799 383.009C532.799 383.009 532.82 382.912 532.841 382.735C532.909 382.23 532.951 381.136 532.381 379.871C531.545 377.961 529.304 375.699 523.703 374.609C522.496 374.378 521.425 374.049 520.495 373.673C519.994 373.469 519.523 373.274 519.09 373.029C518.954 372.955 518.828 372.871 518.719 372.797C517.972 372.371 517.355 371.879 516.827 371.392C516.759 371.332 516.697 371.295 516.65 371.235C516.101 370.688 515.641 370.145 515.265 369.557C515.223 369.52 515.176 369.459 515.155 369.422C514.738 368.82 514.408 368.273 514.079 367.726C513.045 365.895 512.298 364.411 510.411 364.138C505.955 363.512 499.628 364.995 499.91 369.01C499.91 369.01 494.419 368.912 493.651 366.066C493.144 364.254 492.198 365.793 491.869 366.766C491.299 368.444 491.608 370.275 490.991 372.009C490.902 372.241 490.814 372.459 490.73 372.69C490.443 373.413 490.16 374.113 490.134 374.855C490.119 374.915 490.119 374.994 490.119 375.054Z" fill="#DFDFDF"/>
<path d="M290.102 318.654C290.431 319.803 290.917 321.263 291.596 322.705C291.638 322.765 291.664 322.84 291.706 322.918C292.301 324.184 293.09 325.431 294.057 326.367C295.175 327.48 296.559 328.18 298.273 328.143C298.273 328.143 298.383 328.143 298.581 328.124C299.041 328.064 299.945 327.869 300.932 327.364C302.954 326.33 305.347 323.896 305.107 318.204C305.065 317.017 305.17 315.946 305.347 314.987C305.42 314.579 305.525 314.208 305.656 313.856C305.786 313.504 305.917 313.174 306.073 312.864C306.361 312.298 306.69 311.77 307.019 311.325C307.437 310.759 307.834 310.351 308.226 309.962C308.336 309.828 308.466 309.688 308.597 309.573C309.146 309.067 309.663 308.645 310.18 308.228C311.878 306.847 313.341 305.85 313.169 304.177C312.709 300.199 309.48 295.133 305.196 296.38C305.196 296.38 303.9 291.665 306.821 290.261C309.041 289.209 306.073 289.074 305.154 288.977C303.111 288.782 298.299 288.277 297.949 288.235C297.353 288.175 296.742 288.119 296.147 288.175C295.948 288.193 295.77 288.212 295.577 288.254C294.172 288.606 293.205 289.732 292.5 290.887C290.415 294.396 289.997 298.466 289.621 302.406C289.109 307.797 288.581 313.351 290.102 318.654Z" fill="#DFDFDF"/>
<path d="M450.478 88.6937C451.523 87.2614 453.462 87.1084 455.264 86.9694C457.108 86.8303 458.948 87.0157 460.698 87.5395C463.112 88.2627 462.119 91.2664 459.658 90.8863C458.31 90.6777 456.91 90.5757 455.546 90.7102C454.172 90.8446 452.934 91.4843 451.565 91.0625C450.51 90.738 449.799 89.6208 450.478 88.6937Z" fill="#DFDFDF"/>
<path d="M446.189 127.78C451.043 135.262 457.809 137.719 462.642 138.442L462.402 130.372C462.82 123.9 446.498 120.92 446.498 120.92L446.189 127.78Z" fill="#603813"/>
<path d="M476.027 116.646C476.027 116.646 483.06 92.4482 463.258 90.747C436.038 88.406 433.629 107.824 440.421 116.813C446.644 125.055 475.897 126.622 476.027 116.646Z" fill="#1F1D1C"/>
<path d="M439.706 112.103C440.375 108.075 443.347 109.758 445.051 111.107C445.328 107.241 446.054 104.033 447.428 101.84C451.801 94.8637 468.901 94.3353 475.62 104.506C477.151 106.823 477.261 110.94 476.963 115.742C476.049 130.275 467.637 134.98 462.287 134.563C457.417 134.182 447.945 131.8 445.531 121.81C443.279 120.146 438.995 116.354 439.706 112.103Z" fill="#B0763C"/>
<path d="M469.324 116.081C469.324 116.081 470.688 116.656 470.699 114.421C470.704 112.409 469.675 112.604 469.675 112.604C469.675 112.604 468.692 112.52 468.666 114.277C468.64 116.034 469.324 116.081 469.324 116.081Z" fill="#1F1D1C"/>
<path d="M455.923 115.324C455.923 115.324 457.287 115.899 457.298 113.665C457.303 111.653 456.274 111.847 456.274 111.847C456.274 111.847 455.291 111.764 455.265 113.521C455.239 115.278 455.923 115.324 455.923 115.324Z" fill="#1F1D1C"/>
<path d="M461.518 120.294C462.244 120.257 463.843 120.762 464.25 120.104C464.59 119.557 463.77 116.094 463.665 115.505C463.55 114.861 463.425 114.277 463.305 113.707C463.372 113.674 463.435 113.633 463.508 113.605C463.67 113.545 463.822 113.508 463.979 113.489C464.417 115.853 464.653 118.31 465.06 120.549C465.097 120.748 464.914 120.938 464.684 120.915C463.639 120.818 462.599 120.934 461.549 120.859C461.199 120.836 461.147 120.317 461.518 120.294Z" fill="#603813"/>
<path d="M468.441 109.219C469.496 108.839 471.398 108.867 472.046 109.859C472.161 110.04 471.962 110.281 471.738 110.253C471.236 110.193 470.813 109.938 470.316 109.864C469.773 109.78 469.245 109.85 468.712 109.956C468.227 110.054 467.976 109.386 468.441 109.219Z" fill="#1F1D1C"/>
<path d="M454.366 109.517C455.071 108.288 457.589 108.362 458.577 109.238C458.801 109.438 458.613 109.767 458.342 109.818C457.699 109.943 457.062 109.679 456.409 109.683C455.834 109.683 455.358 109.874 454.815 109.994C454.538 110.059 454.23 109.758 454.366 109.517Z" fill="#1F1D1C"/>
<path d="M459.47 123.608C460.416 124.118 461.116 124.688 462.276 124.818C463.18 124.92 464.199 124.614 465.029 124.957C465.16 125.013 465.249 125.166 465.139 125.282C464.392 126.098 462.663 126.042 461.602 125.88C460.458 125.704 459.136 125.217 458.64 124.225C458.41 123.752 459 123.358 459.47 123.608Z" fill="#603813"/>
<path d="M443.901 99.7308C440.871 102.433 443.013 106.684 444.455 109.628C444.581 109.883 444.81 110.184 445.108 110.11C445.375 109.164 445.432 108.172 445.725 107.231C446.017 106.29 446.608 105.354 447.6 104.927C448.933 104.357 450.61 104.631 452.02 104.306C455.458 103.518 455.542 99.4203 458.625 98.5256C461.968 97.5568 466.054 100.278 468.039 102.317C470.317 104.658 472.167 107.472 475.213 108.979C477.272 109.998 479.68 110.304 482.031 110.453C484.262 110.596 486.566 110.601 488.646 109.883C490.422 109.271 493.933 106.809 491.922 105.525C490.96 104.913 488.479 105.038 487.303 104.816C485.887 104.547 484.497 104.199 483.207 103.606C479.879 102.067 479.037 99.5362 476.817 97.1628C474.738 94.9377 471.571 93.1716 468.478 92.3465C465.427 91.5353 461.676 91.5214 458.614 92.3743C455.035 93.3709 451.791 95.0814 448.666 96.8939C447.224 97.7283 445.213 98.5581 443.901 99.7308Z" fill="#1F1D1C"/>
<path d="M290.102 318.654C290.431 319.803 290.917 321.264 291.596 322.705C291.638 322.766 291.664 322.84 291.706 322.918C292.385 324.128 293.179 325.278 294.057 326.367C295.175 327.48 296.559 328.18 298.273 328.143C298.273 328.143 298.383 328.143 298.581 328.124C299.041 328.064 299.945 327.869 300.932 327.364C288.017 317.833 292.103 300.742 296.147 288.171C295.948 288.189 295.77 288.208 295.577 288.249C294.172 288.602 293.205 289.728 292.5 290.882C290.415 294.392 289.997 298.461 289.621 302.402C289.109 307.797 288.581 313.351 290.102 318.654Z" fill="#929292"/>
<path d="M300.268 306.318C302.092 307.213 303.717 307.839 305.19 309.22C305.848 309.846 306.507 310.527 307.102 311.227C307.431 310.759 307.828 310.351 308.22 309.962C307.672 309.336 307.076 308.793 306.768 308.46C305.274 306.879 303.121 305.067 300.681 304.992C299.897 304.969 299.589 305.984 300.268 306.318Z" fill="#929292"/>
<path d="M298.731 309.786C298.909 310.606 299.609 310.801 300.356 311.19C301.323 311.677 302.221 312.205 303.078 312.826C303.867 313.429 304.593 314.249 305.34 314.991C305.408 314.583 305.518 314.212 305.649 313.86C305.779 313.508 305.91 313.179 306.067 312.868C305.497 312.303 304.881 311.797 304.332 311.385C303.167 310.49 300.602 308.321 299.019 309.183C298.773 309.313 298.684 309.549 298.731 309.786Z" fill="#929292"/>
<path d="M490.119 375.055C490.098 376.673 491.305 378.114 492.799 379.032C494.293 379.927 496.07 380.376 497.809 380.826C504.727 382.638 510.882 385.563 518.149 386.634C522.496 387.26 531.441 388.289 532.799 383.009C532.799 383.009 532.82 382.912 532.841 382.736C532.909 382.231 532.951 381.137 532.381 379.871C532.34 379.931 532.272 380.006 532.251 380.084C528.891 389.499 509.847 383.162 503.081 380.826C498.536 379.227 494.382 376.946 490.145 374.86C490.119 374.916 490.119 374.995 490.119 375.055Z" fill="#929292"/>
<path d="M512.041 377.391C514.016 376.983 515.819 375.755 517.642 374.953C518.609 374.526 519.575 374.132 520.5 373.664C519.993 373.47 519.528 373.266 519.095 373.02C518.959 372.946 518.833 372.862 518.724 372.788C518.175 372.983 517.647 373.196 517.099 373.414C515.187 374.193 512.794 374.934 511.32 376.279C510.766 376.77 511.315 377.549 512.041 377.391Z" fill="#929292"/>
<path d="M508.264 374.897C510.416 374.8 512.308 373.358 514.173 372.501C514.962 372.13 515.928 371.801 516.832 371.388C516.764 371.328 516.702 371.291 516.655 371.23C516.106 370.683 515.646 370.141 515.27 369.552C514.565 369.826 513.885 370.155 513.269 370.41C511.294 371.23 508.656 371.991 507.49 373.701C507.167 374.197 507.579 374.916 508.264 374.897Z" fill="#929292"/>
<path d="M445.176 243.016C447.945 245.607 451.106 248.101 454.533 250.442C456.027 248.397 457.913 246.311 460.092 244.244L445.176 243.016Z" fill="#CCCCCC"/>
<path d="M409.13 243.27C410.274 243.331 411.413 243.428 412.51 243.581C414.731 228.516 417.432 214.544 428.456 201.681C428.916 201.134 427.975 200.665 427.49 201.018C414.752 209.983 410.253 228.01 409.13 243.27Z" fill="#CCCCCC"/>
<path d="M368.744 218.665C371.356 216.987 375.562 216.63 378.676 216.199C380.201 215.99 382.009 215.828 383.378 216.625C384.423 217.233 385.28 218.674 384.533 219.745C383.326 221.479 380.771 221.497 378.744 221.993C376.701 222.494 373.859 222.735 372.171 223.871C368.718 226.198 365.207 220.936 368.744 218.665Z" fill="#CCCCCC"/>
<path d="M546.237 205.111C547.089 202.904 551.07 202.524 551.723 205.111C552.215 207.067 552.162 209.07 552.439 211.049C552.721 213.047 553.599 215.128 553.301 217.131C552.894 219.898 548.949 221.363 547.063 218.628C545.71 216.667 545.631 214.183 545.537 211.925C545.443 209.672 545.401 207.262 546.237 205.111Z" fill="#CCCCCC"/>
<path d="M419.434 201.115C440.521 211.735 466.112 207.507 466.112 207.507C466.639 207.294 467.757 204.156 467.914 203.669C468.839 200.804 469.847 197.976 470.856 195.135C472.898 189.466 473.16 183.342 477.773 178.549C478.828 177.497 480.035 176.542 480.913 175.355C483.264 172.254 483.024 168.221 482.319 164.499L475.464 147.329C474.894 147.171 472.742 146.55 472.303 146.411C470.479 145.905 468.614 145.456 466.989 145.103C468.463 151.106 470.15 164.086 460.991 164.475C450.537 164.902 444.669 151.088 442.956 141.928C441.921 141.831 440.605 141.733 439.022 141.618C438.933 141.599 438.844 141.58 438.734 141.599C438.384 141.562 438.055 141.539 437.679 141.52C437.02 141.483 436.341 141.441 435.615 141.404C435.991 144.774 436.399 150.953 435.265 156.896C434.116 162.936 431.42 168.689 425.557 171.062C425.406 174.395 425.16 177.71 424.878 181.043C424.836 181.529 424.81 181.998 424.769 182.484C424.748 182.716 424.617 183.458 424.371 184.529C423.363 189.424 420.578 201.115 419.434 201.115Z" fill="#4FAC6E"/>
<path d="M424.375 184.529C436.674 176.732 435.269 157.889 435.269 156.934C434.124 162.937 431.423 168.685 425.561 171.063C425.41 174.396 425.164 177.71 424.882 181.043C424.84 181.53 424.814 181.998 424.772 182.485C424.746 182.717 424.616 183.458 424.375 184.529Z" fill="#4F7D6E"/>
<path d="M510.851 156.043C532.946 154.931 555.47 155.733 577.591 156.08C578.197 156.09 578.197 156.91 577.591 156.919C555.47 157.267 532.946 158.074 510.851 156.957C510.187 156.924 510.187 156.076 510.851 156.043Z" fill="#DFCCE2"/>
<path d="M514.215 163.446C523.223 162.658 532.669 163.303 541.697 163.729C542.037 163.743 542.042 164.183 541.697 164.202C532.674 164.628 523.223 165.273 514.215 164.485C513.468 164.415 513.468 163.511 514.215 163.446Z" fill="#DFCCE2"/>
<path d="M303.346 257.33C315.148 256.621 327.134 257.08 338.957 257.121C350.828 257.159 362.719 257.038 374.569 257.673C375.055 257.701 375.055 258.317 374.569 258.341C362.719 258.976 350.828 258.855 338.957 258.892C327.134 258.929 315.148 259.388 303.346 258.684C302.363 258.628 302.363 257.39 303.346 257.33Z" fill="#DFCCE2"/>
<path d="M393.476 322.181C406.705 321.505 420.096 322.005 433.341 322.061C445.938 322.112 458.623 321.838 471.199 322.58C471.612 322.603 471.549 323.187 471.152 323.21C458.284 323.985 445.29 323.688 432.395 323.748C419.501 323.808 406.465 324.29 393.586 323.642C392.567 323.586 392.385 322.237 393.476 322.181Z" fill="#DFCCE2"/>
<path d="M327.458 65.9512C346.016 65.1909 364.684 65.6221 383.258 65.6313C401.769 65.6406 420.589 64.8108 439.058 65.9651C439.742 66.0068 439.742 66.8645 439.058 66.9108C420.589 68.0651 401.769 67.2353 383.258 67.2446C364.684 67.2539 346.016 67.685 327.458 66.9247C326.753 66.8969 326.753 65.979 327.458 65.9512Z" fill="#DFCCE2"/>
<path d="M353.111 74.5275C361.914 73.1509 371.141 73.9203 379.851 75.4777C380.483 75.589 380.352 76.5716 379.694 76.4928C370.833 75.4731 362.17 75.6261 353.268 75.5843C352.609 75.5843 352.416 74.6341 353.111 74.5275Z" fill="#DFCCE2"/>
</g>
<path d="M4.94258 390.113C12.0795 390.493 19.2635 390.767 26.5363 390.938C28.5948 390.98 616.181 391.11 616.181 391.11C616.573 391.087 617.012 391.087 617.409 391.068C620.564 390.943 623.673 390.813 626.824 390.646C634.885 390.243 634.885 385.019 626.824 384.62C623.715 384.453 620.559 384.324 617.409 384.217C616.97 384.194 616.531 384.194 616.092 384.175C616.092 384.175 28.5948 384.282 26.5833 384.324C19.3105 384.495 12.1318 384.769 4.94781 385.149C-1.67189 385.501 -1.62487 389.756 4.94258 390.113Z" fill="white"/>
<path d="M252.75 137.661C252.75 137.661 253.758 141.713 255.483 147.744C258.492 158.276 263.68 174.829 269.48 186.265C271.418 190.085 273.424 193.334 275.457 195.606C286.23 207.7 329.47 180.007 334.987 176.405C335.368 176.15 335.807 176.03 336.262 176.025C339.329 176.002 351.466 175.423 351.288 167.922C351.079 159.75 344.705 149.463 330.823 161.076C322.254 168.219 291.977 177.119 291.977 177.119L282.118 120.575C281.58 117.497 277.379 116.199 274.83 118.34C269.417 122.883 261.073 130.05 252.75 137.661Z" fill="#E0A484"/>
<path d="M255.489 147.744C258.498 158.276 263.686 174.829 269.486 186.265C269.648 169.948 270.102 147.535 270.102 147.535C264.804 145.227 259.841 145.801 255.489 147.744Z" fill="#C9835E"/>
<path d="M220.994 237.029C229.03 242.068 237.938 246.916 246.825 251.691C251.041 253.972 255.112 256.262 258.931 258.505C278.147 269.858 291.465 280.01 291.465 280.01C286.998 284.77 282.332 295.706 278.105 308.147C269.636 333.124 262.875 364.279 262.875 364.279C270.53 370.486 277.003 367.775 277.003 367.775C283.011 357.4 295.958 335.553 306.852 315.268C317.019 296.322 325.373 278.777 324.579 273.205C323.801 267.725 307.202 251.52 289.997 236.041C270.984 218.936 251.23 202.684 251.23 202.684C251.23 202.684 239.735 191.443 226.491 184.485C217.347 179.706 207.332 176.971 199.683 181.43C196.464 183.312 193.627 186.497 191.485 191.345C191.219 191.948 190.978 192.551 190.759 193.153C184.865 209.823 200.038 223.966 220.994 237.029Z" fill="#E0A484"/>
<path d="M66.0662 304.379C87.0852 305.259 108.972 307.378 126.662 308.616C141.934 309.691 154.087 310.164 159.902 308.639C171.245 305.723 189.709 281.878 201.94 264.471C209.234 254.074 214.317 245.961 214.317 245.961C214.317 245.961 217.342 242.415 221 237.029C230.712 222.654 244.824 195.207 217.071 187.771C205.195 184.582 197.175 186.942 190.769 193.158C182.222 201.465 176.59 216.66 168.57 234.808C166.537 239.379 146.568 283.338 146.568 283.338C140.921 282.16 134.118 281.706 126.861 281.743C98.9505 281.892 64.4936 289.271 64.4936 289.271C58.1403 296.545 66.0662 304.379 66.0662 304.379Z" fill="#E0A484"/>
<path d="M260.685 84.6075C252.629 82.6142 244.588 80.5282 236.636 78.2197C231.965 76.8661 226.814 76.7826 225.074 72.0127C223.684 68.2022 224.849 63.4044 227.482 60.2893C230.016 57.2855 233.914 55.3154 238.031 54.4485C242.148 53.5817 246.474 53.7578 250.623 54.4763C256.532 55.5008 262.582 57.9206 265.581 62.5561C267.634 65.7268 267.948 69.4631 267.666 73.0417C267.383 76.6297 266.082 78.7991 264.123 81.8817C263.872 82.2758 262.086 85.5207 261.15 85.2008C260.91 85.1174 260.738 84.6214 260.685 84.6075Z" fill="#42210B"/>
<path d="M262.834 78.9287C262.834 78.9287 266.904 76.0917 269.312 80.1571C271.721 84.2225 264.626 89.7805 260.341 89.2752C260.341 89.2752 261.992 80.324 262.834 78.9287Z" fill="#C9835E"/>
<path d="M192.817 107.525C193.679 111.994 196.887 128.228 196.819 141.93C196.814 143.024 196.788 144.021 196.73 145.018C196.333 152.091 192.242 185.416 191.589 190.664C191.542 191.104 191.49 191.345 191.49 191.345C217.274 203.245 247.049 202.739 250.827 202.693C251.104 202.688 251.229 202.684 251.229 202.684C251.313 202.401 251.475 201.951 251.736 201.256C254.056 195.114 262.922 169.832 270.09 147.53C270.205 147.182 270.315 146.858 270.43 146.51C274.129 135 279.636 126.253 281.099 119.564C281.647 117.093 272.844 114.237 268.554 112.865C267.922 112.657 267.269 112.462 266.611 112.272C263.209 111.22 259.74 110.344 256.95 109.699C255.257 109.328 251.182 108.508 251.182 108.508L252.964 95.0231C252.462 95.0231 251.934 95.0278 251.438 94.9629C250.435 94.9443 249.468 94.8284 248.554 94.6894C247.295 94.4993 246.14 94.2814 245.064 93.9848C244.505 93.8272 243.967 93.6881 243.481 93.5351C242.755 93.2941 242.028 93.053 241.354 92.7703C240.221 92.3392 239.123 91.8431 238.125 91.3101C237.817 91.1478 237.504 91.0134 237.227 90.8094C237.128 90.777 237.034 90.7492 236.992 90.6796C236.757 90.5498 236.516 90.4154 236.281 90.2856C234.844 89.428 233.637 88.5426 232.692 87.75C232.07 87.2261 231.542 86.7811 231.109 86.3871C230.973 86.2434 230.905 86.1924 230.837 86.1182C230.612 85.9004 230.429 85.7242 230.294 85.5574C230.09 85.3627 229.944 85.2236 229.923 85.1541L229.902 85.4554C229.902 85.6779 229.902 85.8772 229.881 86.0997C229.688 88.334 229.348 91.1756 228.815 93.9848C228.502 95.9178 228.141 97.823 227.807 99.4872C227.216 102.357 226.715 104.405 226.715 104.405C226.025 104.28 225.309 104.151 224.588 104.09C224.541 104.062 224.442 104.035 224.369 104.049C223.972 103.993 223.58 103.937 223.204 103.905C220.382 103.525 217.645 103.335 215.064 103.265C213.914 103.233 212.807 103.247 211.725 103.265C203.015 103.469 196.49 105.045 193.888 105.866C193.12 106.125 192.676 106.807 192.817 107.525Z" fill="#E0A484"/>
<path d="M229.934 85.1731C230.049 101.073 247.51 103.279 252.034 102.037L252.964 95.0374C238.158 94.9168 229.934 85.1731 229.934 85.1731Z" fill="#C9835E"/>
<path d="M264.494 68.8141C266.171 71.2107 265.272 75.6979 264.269 80.6626C261.223 95.6864 255.063 99.3902 246.275 98.5837C237.487 97.7771 229.206 93.1415 230.69 78.9567C231.432 71.8643 231.981 65.2864 235.539 62.8342C240.836 59.1814 259.353 61.4667 264.494 68.8141Z" fill="#E0A484"/>
<path d="M232.363 77.186C232.363 77.186 231.224 70.5062 226.286 72.9955C221.349 75.4848 224.834 85.9056 231.344 86.4155C231.344 86.4201 233.873 79.6846 232.363 77.186Z" fill="#E0A484"/>
<path d="M256.97 78.9103C256.97 78.9103 258.308 79.6659 258.637 77.3388C258.935 75.2481 257.832 75.327 257.832 75.327C257.832 75.327 256.824 75.1276 256.542 76.954C256.265 78.7805 256.97 78.9103 256.97 78.9103Z" fill="#42210B"/>
<path d="M242.237 76.1153C242.237 76.1153 243.575 76.8709 243.904 74.5439C244.201 72.4532 243.099 72.532 243.099 72.532C243.099 72.532 242.091 72.3327 241.809 74.1591C241.526 75.9902 242.237 76.1153 242.237 76.1153Z" fill="#42210B"/>
<path d="M248.899 83.7406C249.657 83.7823 251.255 84.4915 251.773 83.8518C252.201 83.3187 251.851 79.6242 251.83 78.9984C251.741 76.7408 251.454 75.1694 251.621 72.5085C251.626 72.3926 251.861 72.3695 251.893 72.4946C252.776 76.2355 252.394 80.5791 252.551 84.4035C252.562 84.6121 252.342 84.7929 252.102 84.7419C251.025 84.524 249.928 84.524 248.847 84.3247C248.492 84.269 248.512 83.722 248.899 83.7406Z" fill="#C9835E"/>
<path d="M257.044 71.6699C258.199 71.3965 260.174 71.6421 260.701 72.7453C260.795 72.9446 260.55 73.1763 260.32 73.1207C259.808 73.0002 259.406 72.6896 258.894 72.5552C258.34 72.4069 257.781 72.4208 257.211 72.4672C256.699 72.5135 256.537 71.7904 257.044 71.6699Z" fill="#42210B"/>
<path d="M241.454 69.8941C242.363 68.6932 244.976 69.0595 245.88 70.0796C246.089 70.3114 245.843 70.6359 245.55 70.6591C244.866 70.7148 244.234 70.3717 243.555 70.2975C242.959 70.2326 242.437 70.3717 241.851 70.4412C241.554 70.4783 241.277 70.1306 241.454 69.8941Z" fill="#42210B"/>
<path d="M244.25 86.1652C245.89 86.9161 246.768 88.0333 248.722 88.3485C249.704 88.5061 250.666 88.5293 251.632 88.2743C252.181 88.1306 252.149 88.0379 252.714 88.0564C252.907 88.0611 252.985 88.2419 252.944 88.3856C252.484 89.8318 249.877 89.5954 248.602 89.4193C246.585 89.1412 244.767 88.2419 243.826 86.5684C243.712 86.3506 243.988 86.0446 244.25 86.1652Z" fill="#C9835E"/>
<path d="M162.771 247.806C163.894 248.53 164.997 249.248 166.083 249.897C166.977 250.463 167.849 250.986 168.722 251.482C182.991 259.845 194.631 263.145 201.946 264.471C209.24 254.074 214.323 245.961 214.323 245.961C214.323 245.961 217.348 242.415 221.006 237.029C229.041 242.068 237.949 246.916 246.837 251.691C251.053 253.972 255.123 256.262 258.942 258.505C262.573 256.549 265.87 254.625 268.864 252.748C279.836 245.878 286.482 239.792 290.008 236.041C270.996 218.936 251.241 202.684 251.241 202.684C251.241 202.684 239.747 191.443 226.502 184.485C217.322 182.088 207.557 180.484 199.694 181.43C196.476 183.312 193.639 186.497 191.496 191.345C191.23 191.948 190.99 192.551 190.77 193.153C182.223 201.46 176.59 216.656 168.57 234.804C166.533 239.379 164.594 243.732 162.771 247.806Z" fill="#4FAC6E"/>
<path d="M262.882 364.284C270.536 370.491 277.009 367.779 277.009 367.779C283.018 357.405 295.964 335.557 306.858 315.272C300.16 314.313 289.883 312.31 278.112 308.152C269.642 333.124 262.882 364.284 262.882 364.284Z" fill="#F1F1F1"/>
<path d="M258.869 368.813C258.832 369.142 258.822 369.457 258.89 369.772C259.083 371.237 260.112 372.595 261.408 373.578C262.986 374.742 264.945 375.423 266.857 376.1C274.464 378.83 281.069 382.743 289.167 384.666C294.015 385.797 304.01 387.842 306.205 381.996C306.205 381.996 306.241 381.89 306.288 381.69C306.377 381.319 306.466 380.68 306.414 379.873C306.382 379.428 306.293 378.928 306.121 378.399C305.416 376.155 303.159 373.374 296.952 371.589C295.614 371.205 294.433 370.746 293.435 370.217C292.887 369.949 292.39 369.661 291.925 369.351C291.81 369.272 291.716 369.198 291.622 369.123C290.985 368.627 290.489 368.224 290.06 367.807L289.564 367.274C289.496 367.2 289.428 367.149 289.386 367.079C289.188 366.838 288.989 366.579 288.817 366.337C288.514 365.911 288.258 365.489 288.028 365.044C287.981 364.998 287.939 364.924 287.918 364.877C287.479 364.08 287.197 363.454 286.91 362.852C285.969 360.677 285.306 358.925 283.2 358.434C278.226 357.289 270.88 358.35 270.708 362.921C270.708 362.921 264.501 362.272 263.984 358.976C263.639 356.876 262.375 358.527 261.883 359.597C261.027 361.438 261.147 363.542 260.238 365.447C260.107 365.702 259.982 365.939 259.856 366.194C259.443 366.982 259.031 367.747 258.916 368.586C258.884 368.66 258.874 368.748 258.869 368.813Z" fill="#4F8D6E"/>
<path d="M66.0668 304.379C87.0858 305.26 108.972 307.378 126.663 308.616C125.467 303.035 124.887 297.37 125.258 291.719C125.467 288.688 125.681 284.896 126.856 281.744C98.9459 281.892 64.489 289.272 64.489 289.272C58.141 296.545 66.0668 304.379 66.0668 304.379Z" fill="#F1F1F1"/>
<path d="M46.756 318.128C47.0486 322.564 47.9316 331.64 54.8805 331.682C54.8805 331.682 55.0058 331.673 55.2357 331.645C55.7425 331.599 56.636 331.478 57.6913 331.01C58.031 330.885 58.3758 330.713 58.7258 330.5C60.9045 329.198 63.1877 326.43 63.1721 320.659C63.1564 319.412 63.287 318.262 63.543 317.261C63.6789 316.714 63.8356 316.218 64.0132 315.722C64.0759 315.615 64.1125 315.509 64.1491 315.398C64.4417 314.776 64.6977 314.308 64.9694 313.886C65.1261 313.608 65.3299 313.339 65.5075 313.084C65.565 313.001 65.6016 312.936 65.6538 312.876C65.7687 312.727 65.8889 312.584 66.03 312.44C66.4636 311.944 66.913 311.49 67.4093 311.091C67.4615 311.049 67.519 310.989 67.5504 310.947C67.634 310.887 67.7123 310.827 67.7698 310.767C68.3498 310.303 68.8879 309.877 69.4156 309.483C71.4323 307.981 73.1356 306.91 72.9997 304.981C72.6967 300.434 69.2745 294.57 64.3372 295.836C64.3372 295.836 63.0989 290.403 66.4741 288.938C68.611 287.988 66.4636 287.445 65.1679 287.352C62.9265 287.204 60.706 287.969 58.3653 287.788C58.0675 287.742 57.7697 287.714 57.4458 287.686C56.4792 287.58 55.5335 287.478 54.614 287.64C54.5147 287.631 54.4364 287.644 54.3632 287.663C52.2786 288.099 50.8104 289.605 50.0476 291.279C49.2848 292.971 49.1542 294.834 49.0288 296.647C48.4645 303.929 46.3172 310.692 46.756 318.128Z" fill="#4F8D6E"/>
<path d="M286.079 374.353C287.782 372.809 289.297 371.135 291.043 369.615C291.236 369.453 291.429 369.29 291.622 369.133C290.969 368.655 290.489 368.234 290.06 367.816C289.836 368.02 289.637 368.201 289.423 368.387C287.704 369.842 286.027 371.432 284.7 373.212C284.135 373.963 285.295 375.066 286.079 374.353Z" fill="#4F7D6E"/>
<path d="M281.602 369.847C281.315 370.403 282.051 371.02 282.683 370.742C284.507 369.921 285.829 368.405 287.407 367.274C287.845 366.954 288.331 366.639 288.812 366.347C288.509 365.921 288.253 365.499 288.023 365.054C287.976 365.007 287.934 364.933 287.913 364.887C287.318 365.058 286.806 365.369 286.32 365.684C284.522 366.801 282.485 368.007 281.602 369.847Z" fill="#4F7D6E"/>
<path d="M258.889 369.772C259.083 371.237 260.112 372.595 261.408 373.578C262.985 374.741 264.945 375.423 266.857 376.1C274.464 378.83 281.068 382.742 289.166 384.666C294.015 385.797 304.01 387.842 306.204 381.996C306.204 381.996 306.241 381.889 306.288 381.69C306.377 381.319 306.476 380.68 306.413 379.873C296.794 385.612 287.573 380.406 277.813 377.62C270.504 375.548 263.309 374.324 258.889 369.772Z" fill="#4F7D6E"/>
<path d="M61.0256 308.199C61.3496 308.917 61.9922 309.218 62.6766 309.631C63.476 310.145 64.2232 310.655 64.9337 311.272C65.3465 311.643 65.7018 312.027 66.0361 312.435C66.4698 311.939 66.9191 311.485 67.4155 311.086C67.4677 311.045 67.5252 310.984 67.5565 310.943C67.6401 310.882 67.7185 310.822 67.776 310.762C67.5095 310.428 67.2378 310.118 66.9243 309.821C65.7697 308.718 63.5335 306.655 61.6683 307.137C61.1301 307.271 60.8062 307.712 61.0256 308.199Z" fill="#4F7D6E"/>
<path d="M59.2637 312.125C60.4706 313.478 62.6441 314.243 64.1541 315.397C64.4466 314.776 64.7027 314.308 64.9743 313.886C63.6002 312.7 61.7246 311.221 59.8228 311.193C59.2637 311.189 58.8928 311.708 59.2637 312.125Z" fill="#4F7D6E"/>
<path d="M46.756 318.127C47.0486 322.564 47.9316 331.64 54.8805 331.682C54.8805 331.682 55.0058 331.672 55.2357 331.645C55.7425 331.598 56.636 331.478 57.6913 331.009C47.4823 327.496 49.7602 315.689 50.7111 307.262C51.4478 300.577 51.3799 293.842 54.2639 287.7C52.2838 288.108 50.8156 289.605 50.0528 291.278C49.29 292.97 49.1594 294.834 49.034 296.646C48.4645 303.929 46.3172 310.692 46.756 318.127Z" fill="#4F7D6E"/>
<path d="M166.078 249.898C166.971 250.463 167.844 250.987 168.717 251.483C178.084 231.578 186.538 211.056 198.941 192.546C199.574 191.578 198.079 190.576 197.322 191.517C189.563 200.872 184.96 212.414 179.563 222.905C174.965 231.847 170.315 240.821 166.078 249.898Z" fill="#F2F2F2"/>
<path d="M220.995 237.029C229.031 242.068 237.939 246.916 246.826 251.691C251.043 253.972 255.113 256.262 258.932 258.505C262.563 256.549 265.86 254.625 268.854 252.748C241.455 238.888 221.57 237.075 220.995 237.029Z" fill="#4F7D6E"/>
<path d="M191.491 191.35C217.275 203.25 247.051 202.814 250.828 202.698C250.985 202.666 251.136 202.638 251.267 202.601C251.314 202.406 251.481 201.952 251.743 201.261C254.062 195.119 262.929 169.837 270.097 147.535C266.158 136.099 266.393 118.41 266.612 112.282C263.211 111.229 259.742 110.353 256.952 109.709C256.748 115.684 254.961 130.588 242.035 130.986C226.768 131.45 223.78 112.254 223.216 103.919C220.394 103.539 217.657 103.349 215.076 103.279C213.926 103.247 212.818 103.261 211.737 103.279C212.578 109.547 212.212 115.17 211.115 120.158C208.456 132.247 201.439 140.572 196.732 145.023C196.538 148.615 195.394 158.809 194.255 168.71C193.106 178.501 191.491 191.35 191.491 191.35Z" fill="#EDEDED"/>
<path d="M196.721 145.111C196.538 148.615 195.393 158.809 194.254 168.71C213.361 144.476 211.115 120.157 211.115 120.157C208.455 132.247 201.438 140.572 196.731 145.023L196.721 145.111Z" fill="#CCCCCC"/>
<path d="M326.544 165.09C328.028 169.86 330.714 174.18 332.333 178.876C333.169 181.305 329.266 182.334 327.668 180.777C323.655 176.869 321.664 171.079 320.16 166.073C319.078 162.485 325.447 161.562 326.544 165.09Z" fill="#CCCCCC"/>
<path d="M259.009 102.482C258.116 103.599 257.139 104.651 256.167 105.689C255.817 106.06 255.488 106.445 255.174 106.83C249.385 114.029 248.356 122.326 245.487 130.3C245.132 129.831 244.777 129.363 244.437 128.881C245.284 125.766 246.02 122.642 246.95 119.573C245.55 114.789 244.427 110.436 240.566 106.515C238.152 104.067 235.305 101.921 233.413 99.1023C231.532 96.3024 230.858 93.0715 230.487 89.8729C230.111 86.6559 230.153 83.4666 228.601 80.4906C228.471 80.2356 228.345 79.9714 228.309 79.6933C228.22 79.0119 228.669 78.3443 229.275 77.9179C229.526 77.7417 229.813 77.5934 230.132 77.5702C230.451 77.547 230.796 77.6815 230.921 77.941C230.999 78.1079 230.984 78.298 230.968 78.4788C230.796 80.4628 231.114 82.4561 231.344 84.4262C231.59 86.5168 231.715 88.6167 231.976 90.7027C232.645 96.0104 235.153 99.5612 239.108 103.381C243.758 107.868 246.71 112.17 247.494 117.904C248.434 115.104 249.589 112.355 251.271 109.727C253.502 106.246 256.569 103.344 259.046 100.016C260.77 97.7024 261.883 95.1065 262.546 92.4039C262.844 91.2033 263.299 89.7895 263.199 88.5564C263.1 87.2817 262.52 84.6997 263.429 83.601C264.829 81.9091 265.394 83.8977 265.185 85.0798C264.735 87.6432 264.761 90.2623 264.145 92.8026C263.408 95.8157 261.825 98.75 259.819 101.453C259.558 101.805 259.291 102.143 259.009 102.482Z" fill="#CCCCCC"/>
<path d="M227.563 168.108C229.95 170.532 229.459 174.774 229.418 177.755C229.381 180.235 228.535 182.747 228.9 185.232C229.182 187.137 229.903 189.909 232.004 190.878C232.735 191.216 233.571 191.323 234.391 191.392C235.112 191.453 235.849 191.48 236.539 191.29C237.599 190.998 238.394 190.229 239.083 189.459C241.774 186.483 241.21 183.827 241.403 180.272C241.591 176.888 242.897 174.894 245.499 172.479C252.505 165.962 248.838 160.404 246.727 153.089C244 143.642 243.028 131.543 247.563 122.42C247.599 122.35 247.72 122.374 247.714 122.452C247.161 128.432 245.786 134.12 246.079 140.165C246.403 146.831 248.383 152.625 250.395 159.004C251.508 162.531 252.333 166.356 250.227 169.74C249.444 171.005 248.232 171.96 247.114 172.975C243.2 176.526 243.179 179.586 242.871 184.244C242.532 189.348 236.873 195.513 230.682 191.587C227.996 189.881 227.432 186.771 227.448 184.059C227.458 181.625 228.033 179.201 228.158 176.772C228.226 174.7 228.524 172.618 227.861 170.574C227.73 170.171 227.558 169.768 227.26 169.438C226.722 168.854 225.859 168.604 225.05 168.386C224.595 168.261 224.125 168.14 223.655 168.21C223.069 168.298 222.599 168.683 222.197 169.077C221.084 170.166 220.311 171.455 219.653 172.79C219.501 173.1 219.386 173.749 218.968 173.861C218.55 173.972 217.986 173.698 218.09 173.267C218.952 169.735 223.069 163.542 227.563 168.108Z" fill="#E6E6E6"/>
<path d="M195.31 194.081L210.347 200.598C210.629 200.719 210.963 200.617 211.104 200.366L224.777 175.534C224.913 175.283 224.798 174.987 224.516 174.862L209.479 168.344C209.197 168.223 208.863 168.325 208.722 168.576L195.049 193.408C194.913 193.659 195.028 193.96 195.31 194.081Z" fill="#DFCCE2"/>
<path d="M195.65 105.917C194.428 105.676 193.137 106.01 192.233 106.784C184.741 113.204 147.949 145.305 144.678 159.319C141.272 173.925 191.272 185.18 197.719 186.571C198.153 186.664 198.534 186.872 198.827 187.169C200.745 189.162 208.764 196.802 214.914 192.027C221.633 186.812 226.267 176.229 207.939 174.292C196.633 173.096 170.389 158.697 170.389 158.697L201.915 137.253C201.915 137.253 212.187 109.157 195.65 105.917Z" fill="#E0A484"/>
<path d="M154.934 283.417C169.949 282.643 185.19 283.305 200.232 283.366C215.268 283.421 230.53 282.837 245.53 283.783C245.958 283.811 245.958 284.344 245.53 284.372C230.525 285.317 215.268 284.729 200.232 284.789C185.19 284.845 169.949 285.512 154.934 284.738C153.977 284.682 153.977 283.468 154.934 283.417Z" fill="#CCCCCC"/>
<path d="M46.4686 229.58C63.1145 228.81 79.8911 229.343 96.5527 229.371C113.12 229.399 130.132 228.453 146.637 229.751C147.426 229.812 147.426 230.78 146.637 230.841C130.132 232.143 113.115 231.198 96.5527 231.221C79.8911 231.249 63.1145 231.782 46.4686 231.012C45.4289 230.97 45.4289 229.626 46.4686 229.58Z" fill="#CCCCCC"/>
<path d="M301.679 210.393C313.001 209.814 324.475 210.249 335.813 210.268C347.093 210.282 358.733 209.61 369.946 210.75C370.384 210.796 370.384 211.311 369.946 211.357C358.728 212.498 347.093 211.821 335.813 211.839C324.47 211.853 313.001 212.294 301.679 211.714C300.723 211.663 300.723 210.444 301.679 210.393Z" fill="#CCCCCC"/>
<path d="M290.196 217.838C301.921 217.226 314.993 216.637 326.618 218.241C326.806 218.269 326.806 218.552 326.618 218.575C314.998 220.179 301.921 219.59 290.196 218.978C289.366 218.941 289.366 217.884 290.196 217.838Z" fill="#CCCCCC"/>
<path d="M90.4914 84.0793C106.27 83.3144 122.221 83.8568 138.026 83.88C153.815 83.9032 169.802 83.421 185.56 84.4084C186.151 84.4455 186.151 85.1872 185.56 85.2243C169.808 86.2117 153.815 85.7296 138.026 85.7528C122.226 85.7759 106.275 86.3183 90.4914 85.5534C89.4255 85.5024 89.4255 84.1349 90.4914 84.0793Z" fill="#CCCCCC"/>
<defs>
<filter id="filter0_d" x="9.52689" y="0" width="621.071" height="395.155" filterUnits="userSpaceOnUse" color-interpolation-filters="sRGB">
<feFlood flood-opacity="0" result="BackgroundImageFix"/>
<feColorMatrix in="SourceAlpha" type="matrix" values="0 0 0 0 0 0 0 0 0 0 0 0 0 0 0 0 0 0 127 0"/>
<feOffset dy="4"/>
<feGaussianBlur stdDeviation="2"/>
<feColorMatrix type="matrix" values="0 0 0 0 0 0 0 0 0 0 0 0 0 0 0 0 0 0 0.25 0"/>
<feBlend mode="normal" in2="BackgroundImageFix" result="effect1_dropShadow"/>
<feBlend mode="normal" in="SourceGraphic" in2="effect1_dropShadow" result="shape"/>
</filter>
</defs>
</svg>
